<?xml version="1.0" encoding="UTF-8" standalone="no"?>
<!-- Generator: Adobe Illustrator 16.0.0, SVG Export Plug-In . SVG Version: 6.00 Build 0)  -->

<svg
   version="1.1"
   id="Layer_1"
   x="0px"
   y="0px"
   width="50px"
   height="50px"
   viewBox="0 0 4000 2000"
   enable-background="new 0 0 4000 2000"
   xmlspace="preserve"
   xmlns="http://www.w3.org/2000/svg"
   xmlnssvg="http://www.w3.org/2000/svg"><defs
   id="defs23" />
<g
   id="g23"
   transform="matrix(5.4199866,0,0,5.48279,-8842.0721,-3139.041)">
	
	<g
   id="g10">
		<g
   id="g6">
			<path
   fill-rule="evenodd"
   clip-rule="evenodd"
   fill="#666666"
   d="m 1633.309,1123.426 c 13.828,-41.071 12.848,-82.791 12.848,-124.389 0,-19.313 -1.328,-38.666 -0.487,-57.934 2.113,-48.468 22.899,-87.066 64.187,-113.272 19.346,-12.279 40.828,-17.457 63.605,-10.538 19.679,5.978 35.456,17.425 45.172,36.003 9.276,17.736 3.486,47.276 -11.53,60.533 -11.674,10.304 -36,8.924 -46.576,-2.642 -6.265,-6.852 -5.347,-18.953 2.028,-26.2 5.361,-5.268 12.069,-7.388 19.354,-7.915 3.131,-0.227 6.291,-0.037 10.068,-0.037 -3.001,-12.706 -8.824,-23.188 -19.275,-30.687 -19.434,-13.943 -48.747,-7.54 -62.547,13.573 -9.99,15.282 -10.204,31.916 -6.307,48.959 4.592,20.079 11.263,30.085 31.124,47.296 -10.987,3.449 -21.839,3.352 -32.443,1.027 -10.563,-2.315 -20.834,-5.978 -31.225,-9.047 -5.125,18.77 12.982,43.339 37.445,48.863 -1.959,1.753 -3.69,3.209 -5.321,4.771 -17.013,16.302 -27.802,35.578 -25.664,59.788 1.425,16.156 1.313,15.298 16.279,17.201 17.531,2.229 33.193,-3.714 47.149,-13.881 6.842,-4.984 12.806,-11.176 19.367,-16.998 0.289,11.898 6.188,21.301 15.945,28.408 9.703,7.069 20.61,10.069 33.344,9.462 -10.078,-20.584 -14.869,-41.492 -8.766,-64.835 1.988,2.816 3.279,4.891 4.808,6.773 15.05,18.528 35.38,25.805 58.402,27.152 9.648,0.565 18.924,-1.143 27.625,-5.516 18.077,-9.087 28.056,-28.27 25.241,-48.51 -2.408,-17.312 -17.886,-32.335 -37.393,-36.063 -0.189,4.208 -0.122,8.413 -0.612,12.552 -1.484,12.52 -8.765,20.726 -19.573,22.625 -6.963,1.225 -12.421,-1.08 -16.674,-6.584 -13.366,-17.301 -9.209,-41.641 9.759,-52.264 25.264,-14.146 49.501,-11.775 68.729,9.92 22.444,25.324 26.882,53.971 13.038,84.701 -15.179,33.692 -42.292,54.566 -76.195,67.314 -14.647,5.509 -29.897,8.06 -45.588,8.007 -34.036,-0.115 -68.082,-0.637 -102.107,-0.019 -25.966,0.476 -51.82,2.993 -77.234,12.403 z"
   id="path6" />
		</g>
		<g
   id="g7">
			<path
   fill-rule="evenodd"
   clip-rule="evenodd"
   fill="#666666"
   d="m 2119.656,964.942 c -26.73,2.696 -43.74,29.493 -35.807,56.527 4.981,16.975 16.405,28.231 33.472,31.614 28.103,5.571 52.979,-1.912 73.438,-22.433 2.628,-2.636 4.636,-5.894 7.005,-8.958 6.113,13.734 2.766,37.731 -8.674,63.231 19.046,7.139 46.917,-13.818 49.797,-38.04 1.363,1.584 2.438,2.846 3.523,4.095 13.613,15.646 30.238,26.08 51.212,27.814 6.946,0.575 14.086,-1.083 21.128,-1.8 3.137,-0.317 4.411,-2.396 5.109,-5.323 4.469,-18.738 0.225,-35.992 -9.899,-51.688 -5.413,-8.393 -12.616,-15.628 -18.803,-23.132 24.979,-8.238 39.009,-27.07 36.102,-49.962 -19.827,9.776 -40.329,14.799 -62.521,9.72 0.178,-0.684 0.147,-1.301 0.411,-1.476 20.59,-13.687 28.645,-34.201 31.323,-57.595 1.521,-13.279 -0.507,-25.896 -7.744,-37.381 -9.8,-15.548 -29.117,-23.903 -47.277,-20.501 -16.673,3.121 -31.339,18.272 -34.647,35.821 -0.08,0.42 0.066,0.886 0.084,1.085 5.617,0.49 11.204,0.433 16.539,1.564 9.206,1.952 16.297,6.857 18.861,16.604 2.177,8.277 0.091,14.956 -7.195,19.346 -16.598,10.006 -41.937,12.764 -53.729,-14.145 -13.558,-30.938 -5.086,-56.632 26.734,-75.396 23.273,-13.721 47.553,-13.287 71.46,-1.926 34.391,16.343 55.033,44.657 66.947,79.971 4.585,13.594 6.633,27.684 6.533,42.044 -0.2,28.971 -0.809,57.944 -0.574,86.911 0.212,26.137 1.708,52.229 8.429,77.699 1.194,4.523 2.688,8.968 4.011,13.347 -9.799,-2.404 -19.313,-5.268 -29.029,-7.022 -28.803,-5.204 -57.962,-5.285 -87.103,-5.141 -21.689,0.107 -43.408,1.227 -65.061,0.433 -48.434,-1.778 -86.846,-22.76 -112.891,-63.84 -20.703,-32.653 -17.363,-68.771 6.406,-95.922 21.303,-24.337 49.284,-22.596 71.586,-8.53 17.593,11.095 20.324,35.705 6.625,51.608 -8.19,9.509 -23.904,7.499 -31.111,-4.046 -3.824,-6.127 -4.854,-12.96 -4.676,-20.052 0.043,-1.703 0.01,-3.409 0.01,-5.125 z"
   id="path7" />
		</g>
		<g
   id="g8">
			<path
   fill-rule="evenodd"
   clip-rule="evenodd"
   fill="#666666"
   d="m 1801.046,492.835 c -6.007,-23.069 -1.335,-43.545 8.575,-63.311 -21.523,-5.133 -44.433,12.45 -49.403,37.982 -1.192,-1.336 -2.191,-2.47 -3.207,-3.59 -15.501,-17.114 -34.062,-28.85 -57.739,-28.655 -20.605,0.168 -20.821,0.654 -21.679,20.788 -1.003,23.549 10.064,42.282 27,57.881 1.242,1.143 2.502,2.267 3.932,3.561 -24.382,5.449 -40.801,27.534 -37.221,50.146 19.974,-10.526 40.844,-14.657 62.978,-9.675 0.363,0.493 0.727,0.985 1.09,1.479 -0.835,0.338 -1.745,0.559 -2.493,1.033 -27.127,17.208 -35.149,57.259 -29.647,78.558 7.873,30.473 43.572,45.792 68.765,29.118 11.151,-7.382 16.906,-18.337 19.924,-30.868 -6.074,-0.617 -11.824,-0.648 -17.307,-1.875 -10.365,-2.319 -16.904,-9.492 -18.083,-18.411 -0.926,-7.004 1.575,-12.351 7.196,-16.441 18.648,-13.567 43.085,-8.172 52.714,12.628 14.014,30.271 6.896,53.8 -19.902,72.356 -27.647,19.145 -56.549,17.999 -84.591,1.583 -38.327,-22.436 -59.57,-57.096 -65.193,-100.654 -2.273,-17.605 -1.021,-35.709 -0.813,-53.58 0.396,-33.887 1.274,-67.801 -3.367,-101.476 -1.827,-13.256 -5.272,-26.29 -8.015,-39.59 -0.541,0.049 0.083,-0.195 0.553,-0.022 25.526,9.297 52.218,11.491 78.992,11.938 33.076,0.554 66.182,-0.597 99.256,0.006 46.09,0.84 83.641,19.646 111.127,56.86 14.039,19.006 20.925,40.664 16.278,64.452 -4.316,22.099 -15.939,39.685 -35.518,51.61 -19.274,11.739 -50.594,2.93 -62.469,-11.101 -10.322,-12.197 -8.951,-37.208 2.866,-47.98 6.646,-6.058 18.107,-5.374 25.438,1.752 7.132,6.935 8.601,15.916 8.55,25.339 -0.01,1.42 -0.182,2.839 -0.222,4.259 -0.01,0.276 0.25,0.559 0.386,0.837 19.139,-2.72 35.848,-19.461 37.52,-37.589 2.09,-22.649 -9.996,-41.964 -30.576,-49.314 -26.155,-9.339 -68.749,2.658 -83.796,27.608 -0.313,0.521 -0.765,0.96 -1.899,2.358 z"
   id="path8" />
		</g>
		<g
   id="g9">
			<path
   fill-rule="evenodd"
   clip-rule="evenodd"
   fill="#666666"
   d="m 2206.889,636.747 c 1.319,22.78 24.832,40.92 48.541,37.619 23.007,-3.203 38.855,-19.221 40.965,-42.522 2,-22.109 -3.263,-42.519 -17.355,-60.021 -3.974,-4.935 -9.198,-8.863 -14.174,-13.56 10.606,-3.132 21.334,-3.459 31.822,-1.097 10.374,2.335 20.437,6.05 30.529,9.127 3.404,-20.056 -13.569,-42.973 -37.435,-48.694 1.345,-1.211 2.439,-2.203 3.54,-3.188 15.951,-14.278 26.292,-31.626 27.899,-53.274 0.473,-6.359 -0.9,-12.862 -1.515,-19.292 -0.298,-3.113 -2.257,-4.408 -5.255,-5.112 -16.891,-3.969 -32.683,-0.865 -47.729,7.141 -9.472,5.039 -17.612,11.765 -24.489,20.008 -0.98,1.175 -2.004,2.314 -3.608,4.165 0.022,-13.255 -6.22,-22.324 -15.814,-29.364 -9.924,-7.281 -21.109,-10.476 -34.167,-9.762 10.782,20.068 14.954,40.77 9.756,63.376 -0.904,-0.708 -1.455,-0.982 -1.789,-1.42 -19.627,-25.868 -46.421,-34.397 -77.302,-29.778 -26.438,3.956 -42.481,29.952 -36.503,56.139 3.734,16.351 20.353,30.995 36.624,32.436 0.382,-5.475 0.303,-11.029 1.244,-16.405 1.862,-10.639 8.548,-17.333 17.791,-19.322 7.839,-1.687 13.961,0.891 18.013,7.391 10.297,16.531 13.543,41.487 -13.23,54.027 -27.414,12.84 -49.588,8.383 -67.596,-13.988 -21.686,-26.94 -24.389,-56.605 -8.9,-87.099 18.013,-35.468 48.365,-55.959 86.001,-66.515 13.861,-3.888 28.077,-4.216 42.377,-4.195 34.503,0.049 69.011,0.035 103.507,-0.52 11.191,-0.18 22.444,-1.577 33.506,-3.401 10.879,-1.793 21.551,-4.832 32.52,-7.373 -0.07,-0.23 0.254,0.238 0.143,0.545 -9.393,25.669 -11.566,52.519 -12.031,79.455 -0.52,30.222 -0.224,60.471 0.35,90.696 0.792,41.802 -12.949,77.698 -42.806,106.972 -18.859,18.492 -41.31,30.294 -68.388,29.159 -25.769,-1.081 -46.306,-12.735 -60.523,-34.678 -12.176,-18.792 -4.184,-49.739 7.59,-61.624 11.924,-12.039 38.207,-11.849 49.689,0.661 6.688,7.285 5.545,19.23 -2.656,26.188 -7.208,6.117 -15.866,7.435 -24.957,7.108 -1.391,-0.052 -2.785,-0.009 -4.185,-0.009 z"
   id="path9" />
		</g>
	</g>
	<g
   id="g15">
		<g
   id="g11">
			<path
   fill-rule="evenodd"
   clip-rule="evenodd"
   fill="#00a99d"
   d="m 1996.708,1070.251 c -8.349,-23.593 -15.637,-46.647 -24.63,-69.019 -13.426,-33.401 -32.226,-63.847 -54.095,-92.435 -2.271,-2.965 -4.103,-7.174 -4.122,-10.819 -0.279,-53.599 -0.224,-107.198 -0.212,-160.798 0,-1.805 0.378,-3.613 0.825,-7.596 52.767,61.838 104.333,122.271 156.322,183.197 -35.636,47.471 -60.278,99.828 -74.088,157.47 z"
   id="path10" />
		</g>
		<g
   id="g12">
			<path
   fill-rule="evenodd"
   clip-rule="evenodd"
   fill="#00a99d"
   d="m 2077.177,783.271 c -52.739,-61.439 -104.118,-121.292 -154.565,-180.06 14.932,-26.306 30.854,-50.836 43.175,-77.058 12.31,-26.201 21.017,-54.096 31.089,-80.688 1.043,3.749 2.456,8.848 3.876,13.942 14.956,53.67 39.468,102.522 73.616,146.576 2.018,2.602 3.582,6.364 3.598,9.593 0.246,53.608 0.216,107.216 0.208,160.823 0,1.575 -0.442,3.147 -0.997,6.872 z"
   id="path11" />
		</g>
		<g
   id="g13">
			<path
   fill-rule="evenodd"
   clip-rule="evenodd"
   fill="#00a99d"
   d="m 2166.873,820.957 c 0,-43.282 0,-84.625 0,-127.788 44.396,29.95 91.311,51.12 142.4,63.857 -50.867,13.009 -97.906,33.802 -142.4,63.931 z"
   id="path12" />
		</g>
		<g
   id="g14">
			<path
   fill-rule="evenodd"
   clip-rule="evenodd"
   fill="#00a99d"
   d="m 1682.848,757.091 c 50.68,-13.017 97.625,-33.64 141.726,-63.626 0,42.762 0,84.221 0,127.199 -43.843,-29.795 -90.897,-50.59 -141.726,-63.573 z"
   id="path13" />
		</g>
	</g>
	
</g>
</svg>
